<svg width="283" height="37" viewBox="0 0 283 37" fill="none" xmlns="http://www.w3.org/2000/svg" style="height:100%"><path d="M0.976562 12.3347H13.2801V0H0.976562V12.3347ZM25.5879 0V12.3347H37.8957V0H25.5879ZM0.976562 37H13.2801V24.6653H0.976562V37ZM25.5879 37H37.8957V24.6653H25.5879V37Z" fill="#FF6A1B"></path><path fill-rule="evenodd" clip-rule="evenodd" d="M136.516 18.5C136.516 7.548 129.681 0 120.304 0C110.927 0 104.039 7.548 104.039 18.5C104.039 29.452 110.927 37 120.304 37C129.681 37 136.516 29.452 136.516 18.5ZM108.818 18.5C108.818 10.0064 113.568 4.25089 120.304 4.25089C127.04 4.25089 131.79 10.0064 131.79 18.5C131.79 26.9936 127.048 32.7491 120.304 32.7491C113.56 32.7491 108.818 26.9936 108.818 18.5Z" fill="#39392D"></path><path d="M83.71 36.449V4.74823H95.8358V0.550781H66.7969V4.74823H78.931V36.449H83.71Z" fill="#39392D"></path><path d="M155.317 36.449L141.693 0.550781H146.833L157.909 30.4509L168.985 0.550781H173.875L160.338 36.449H155.317Z" fill="#39392D"></path><path d="M218.969 36.449H241.621V32.2516H223.76V0.550781H218.969V36.449Z" fill="#39392D"></path><path fill-rule="evenodd" clip-rule="evenodd" d="M268.305 0.550781H263.013L249.193 36.449H253.985L256.774 29.1066L256.938 28.6954H274.29L274.774 29.9576L277.285 36.4654H282.121L268.305 0.550781ZM258.534 24.4774L265.577 5.94867L271.025 20.0991V20.1238L272.055 22.8001L272.694 24.4774H258.534Z" fill="#39392D"></path><path fill-rule="evenodd" clip-rule="evenodd" d="M190.283 0.550781H195.571L209.378 36.4654H204.554L202.044 29.9576L201.56 28.6954H184.208L184.044 29.1066L181.254 36.449H176.463L190.283 0.550781ZM185.803 24.4774H199.943L199.304 22.8001L198.274 20.1238V20.0991L192.826 5.94867L185.803 24.4774Z" fill="#39392D"></path></svg>